<?xml version="1.0" encoding="UTF-8" standalone="no"?>
<!-- Created with Inkscape (http://www.inkscape.org/) -->

<svg
   xmlns:dc="http://purl.org/dc/elements/1.1/"
   xmlns:cc="http://creativecommons.org/ns#"
   xmlns:rdf="http://www.w3.org/1999/02/22-rdf-syntax-ns#"
   xmlns:svg="http://www.w3.org/2000/svg"
   xmlns="http://www.w3.org/2000/svg"
   xmlns:xlink="http://www.w3.org/1999/xlink"
   xmlns:sodipodi="http://sodipodi.sourceforge.net/DTD/sodipodi-0.dtd"
   xmlns:inkscape="http://www.inkscape.org/namespaces/inkscape"
   width="3000"
   height="1875"
   viewBox="0 0 793.74998 496.09376"
   version="1.1"
   id="svg3046"
   inkscape:version="0.92.3 (2405546, 2018-03-11)"
   sodipodi:docname="walletFrame_bg.svg">
  <defs
     id="defs3040">
    <linearGradient
       inkscape:collect="always"
       id="linearGradient3716">
      <stop
         style="stop-color:#ffffff;stop-opacity:1;"
         offset="0"
         id="stop3712" />
      <stop
         style="stop-color:#ffffff;stop-opacity:0;"
         offset="1"
         id="stop3714" />
    </linearGradient>
    <linearGradient
       inkscape:collect="always"
       xlink:href="#linearGradient3716"
       id="linearGradient3718"
       x1="-0.60499239"
       y1="248.95437"
       x2="796.16997"
       y2="248.95437"
       gradientUnits="userSpaceOnUse" />
  </defs>
  <sodipodi:namedview
     id="base"
     pagecolor="#ffffff"
     bordercolor="#666666"
     borderopacity="1.0"
     inkscape:pageopacity="0.0"
     inkscape:pageshadow="2"
     inkscape:zoom="0.43733333"
     inkscape:cx="1500"
     inkscape:cy="927.11349"
     inkscape:document-units="mm"
     inkscape:current-layer="layer2"
     showgrid="false"
     inkscape:window-width="1861"
     inkscape:window-height="1043"
     inkscape:window-x="1979"
     inkscape:window-y="0"
     inkscape:window-maximized="1"
     units="px"
     inkscape:pagecheckerboard="true" />
  <metadata
     id="metadata3043">
    <rdf:RDF>
      <cc:Work
         rdf:about="">
        <dc:format>image/svg+xml</dc:format>
        <dc:type
           rdf:resource="http://purl.org/dc/dcmitype/StillImage" />
        <dc:title></dc:title>
      </cc:Work>
    </rdf:RDF>
  </metadata>
  <g
     inkscape:label="Layer 1"
     inkscape:groupmode="layer"
     id="layer1"
     transform="translate(0,199.09378)">
    <g
       id="g12"
       transform="matrix(0.18792217,0,0,-0.18792217,34.30201,202.47436)">
      <path
         d="m 965.102,1023.04 -183.813,38.77 48.168,53.66 183.803,-38.77 -48.158,-53.66"
         style="fill:#ffffff;fill-opacity:1;fill-rule:nonzero;stroke:none"
         id="path14"
         inkscape:connector-curvature="0" />
      <path
         d="m 1023.43,844.473 -58.328,178.567 48.158,53.66 58.33,-178.563 -48.16,-53.664"
         style="fill:#ffffff;fill-opacity:1;fill-rule:nonzero;stroke:none"
         id="path16"
         inkscape:connector-curvature="0" />
      <path
         d="m 965.656,764.004 -183.808,38.769 48.164,53.665 183.808,-38.77 -48.164,-53.664"
         style="fill:#ffffff;fill-opacity:1;fill-rule:nonzero;stroke:none"
         id="path18"
         inkscape:connector-curvature="0" />
      <path
         d="m 1023.98,585.441 -58.324,178.563 48.164,53.664 58.33,-178.566 -48.17,-53.661"
         style="fill:#ffffff;fill-opacity:1;fill-rule:nonzero;stroke:none"
         id="path20"
         inkscape:connector-curvature="0" />
      <path
         d="m 965.656,411.574 -183.808,38.77 48.164,53.652 183.808,-38.769 -48.164,-53.653"
         style="fill:#ffffff;fill-opacity:1;fill-rule:nonzero;stroke:none"
         id="path22"
         inkscape:connector-curvature="0" />
      <path
         d="M 1023.98,233 965.656,411.574 1013.82,465.227 1072.15,286.66 1023.98,233"
         style="fill:#ffffff;fill-opacity:1;fill-rule:nonzero;stroke:none"
         id="path24"
         inkscape:connector-curvature="0" />
      <path
         d="m 421.684,955.891 -183.809,38.769 48.164,53.65 183.809,-38.77 -48.164,-53.649"
         style="fill:#ffffff;fill-opacity:1;fill-rule:nonzero;stroke:none"
         id="path26"
         inkscape:connector-curvature="0" />
      <path
         d="m 480.008,777.324 -58.324,178.567 48.164,53.649 58.32,-178.563 -48.16,-53.653"
         style="fill:#ffffff;fill-opacity:1;fill-rule:nonzero;stroke:none"
         id="path28"
         inkscape:connector-curvature="0" />
      <path
         d="m 707.063,992.754 -183.805,38.766 48.16,53.67 183.809,-38.77 -48.164,-53.666"
         style="fill:#ffffff;fill-opacity:1;fill-rule:nonzero;stroke:none"
         id="path30"
         inkscape:connector-curvature="0" />
      <path
         d="m 765.387,814.191 -58.324,178.563 48.164,53.666 58.324,-178.568 -48.164,-53.661"
         style="fill:#ffffff;fill-opacity:1;fill-rule:nonzero;stroke:none"
         id="path32"
         inkscape:connector-curvature="0" />
      <path
         d="M 1304.84,776.965 H 1430.7 V 463.879 h 83.13 v 313.086 h 125.85 v 66.394 h -334.84 v -66.394"
         style="fill:#ffffff;fill-opacity:1;fill-rule:nonzero;stroke:none"
         id="path34"
         inkscape:connector-curvature="0" />
      <path
         d="m 1851.07,746.641 c -33.82,0 -69.61,-17.606 -92.34,-44.676 v 141.394 h -79.42 v -379.48 h 79.42 v 153.164 c 0,36.297 36.31,64.441 67.54,64.441 33.44,0 47.09,-19.023 47.09,-65.683 V 463.879 h 79.42 v 163.074 c 0,77.188 -36.12,119.688 -101.71,119.688"
         style="fill:#ffffff;fill-opacity:1;fill-rule:nonzero;stroke:none"
         id="path36"
         inkscape:connector-curvature="0" />
      <path
         d="m 2160.45,514.152 c -45.59,0 -76.23,35.125 -76.23,87.391 0,52.266 30.64,87.383 76.23,87.383 45.22,0 75.61,-35.117 75.61,-87.383 0,-52.266 -30.39,-87.391 -75.61,-87.391 z m 0,234.969 c -88.02,0 -154.4,-63.437 -154.4,-147.578 0,-84.141 66.38,-147.586 154.4,-147.586 87.67,0 153.78,63.445 153.78,147.586 0,84.141 -66.11,147.578 -153.78,147.578"
         style="fill:#ffffff;fill-opacity:1;fill-rule:nonzero;stroke:none"
         id="path38"
         inkscape:connector-curvature="0" />
      <path
         d="m 2561.56,586.047 c 0,-36.301 -36.32,-64.453 -67.55,-64.453 -24.46,0 -47.09,7.957 -47.09,65.683 V 739.199 H 2367.5 V 576.125 c 0,-77.18 36.13,-119.687 101.71,-119.687 37.75,0 75.59,19.589 96.19,48.757 l 2.59,-41.316 h 72.98 v 275.32 h -79.41 V 586.047"
         style="fill:#ffffff;fill-opacity:1;fill-rule:nonzero;stroke:none"
         id="path40"
         inkscape:connector-curvature="0" />
      <path
         d="m 2848.64,685.82 c 42.69,0 72.51,-34.656 72.51,-84.277 0,-49.629 -29.82,-84.285 -72.51,-84.285 -42.69,0 -72.5,34.656 -72.5,84.285 0,49.621 29.81,84.277 72.5,84.277 z m 74.34,17.266 c -22.56,27.09 -58.65,43.555 -96.66,43.555 -73.89,0 -129.61,-62.371 -129.61,-145.098 0,-82.723 55.72,-145.105 129.61,-145.105 35.54,0 69.07,13.945 91.72,37.722 v -7.312 c 0,-78.184 -48.53,-89.864 -77.46,-89.864 -42.51,0 -74.64,9.579 -114.59,34.161 l -5.71,3.515 v -64.082 l 1.91,-1.074 c 34.81,-19.504 81.77,-32.106 119.63,-32.106 71,0 155.64,27.223 155.64,156.891 v 244.91 h -72.38 l -2.1,-36.113"
         style="fill:#ffffff;fill-opacity:1;fill-rule:nonzero;stroke:none"
         id="path42"
         inkscape:connector-curvature="0" />
      <path
         d="m 3240.48,746.641 c -33.83,0 -69.61,-17.606 -92.34,-44.676 v 141.394 h -79.42 v -379.48 h 79.42 v 153.164 c 0,36.297 36.31,64.441 67.54,64.441 33.44,0 47.09,-19.023 47.09,-65.683 V 463.879 h 79.41 v 163.074 c 0,77.188 -36.12,119.688 -101.7,119.688"
         style="fill:#ffffff;fill-opacity:1;fill-rule:nonzero;stroke:none"
         id="path44"
         inkscape:connector-curvature="0" />
      <path
         d="m 3522.61,739.199 v 73.156 h -79.42 v -73.156 h -56.42 v -54.617 h 56.42 V 463.879 h 79.42 v 220.703 h 56.42 v 54.617 h -56.42"
         style="fill:#ffffff;fill-opacity:1;fill-rule:nonzero;stroke:none"
         id="path46"
         inkscape:connector-curvature="0" />
    </g>
  </g>
  <g
     inkscape:groupmode="layer"
     id="layer2"
     inkscape:label="Layer 2">
    <rect
       style="opacity:0.981;fill:url(#linearGradient3718);fill-opacity:1;stroke:none;stroke-width:6.08541679;stroke-linecap:round;stroke-linejoin:bevel;stroke-miterlimit:4;stroke-dasharray:none;stroke-opacity:1;paint-order:fill markers stroke"
       id="rect3654"
       width="796.77496"
       height="500.3287"
       x="-0.60499239"
       y="-1.2099848" />
  </g>
</svg>
